<svg width="167" height="32" xmlns="http://www.w3.org/2000/svg">

 <g>
  <title>background</title>
  <rect fill="none" id="canvas_background" height="34" width="169" y="-1" x="-1"/>
 </g>
 <g>
  <title>Layer 1</title>
  <path id="svg_7" fill="white" d="m39.9709,8.57017c-0.0597,-0.14288 -0.1992,-0.23533 -0.3539,-0.23533l-2.1077,0l1.1477,-1.38447c0.095,-0.11384 0.1141,-0.272 0.0513,-0.40571c-0.0628,-0.13371 -0.1977,-0.21929 -0.3463,-0.21929l-23.1294,0l-6.55899,-6.22019c-0.12718,-0.11996 -0.32025,-0.13982 -0.46736,-0.04661l-3.67982,2.30364l-0.00307,0.00305l-0.00383,0.00153l-4.34638,2.85299c-0.01073,0.00688 -0.01609,0.01757 -0.02605,0.02598c-0.02145,0.01681 -0.03984,0.03515 -0.05669,0.05578c-0.01533,0.01833 -0.02759,0.03667 -0.03908,0.0573c-0.01226,0.02216 -0.02068,0.04432 -0.02835,0.068c-0.00766,0.02445 -0.01225,0.0489 -0.01532,0.07488c-0.00076,0.01299 -0.00766,0.02368 -0.00766,0.03744c0,0.01222 0.00536,0.02139 0.0069,0.03362c0.00229,0.02521 0.00766,0.0489 0.01532,0.07411c0.00766,0.02521 0.01609,0.0489 0.02911,0.07259c0.00537,0.00993 0.00613,0.02063 0.01226,0.03056c0.00536,0.0084 0.01532,0.01146 0.02145,0.0191c0.02682,0.03438 0.05823,0.06265 0.09501,0.08557c0.01379,0.00841 0.02451,0.01911 0.0383,0.02598c0.05057,0.02445 0.10573,0.0405 0.16549,0.0405l5.23359,0l1.1814,2.93933l0.00153,0.00229l0,0.00229l7.68604,18.3641l-4.53715,4.1061c-0.11722,0.1062 -0.15706,0.2727 -0.0996,0.4202c0.0567,0.1475 0.19925,0.2445 0.35705,0.2445l6.5322,0c0.0506,0 0.1004,-0.0107 0.1471,-0.0298c0.0467,-0.0191 0.0889,-0.0474 0.1241,-0.0825l3.4339,-3.4375c0.0046,0.0053 0.0061,0.0122 0.0115,0.0176l3.2515,3.413c0.0728,0.0772 0.1686,0.0986 0.2797,0.1192c5.9032,-0.0329 14.8595,-0.0627 15.2809,-0.0191c0.0398,0.013 0.0804,0.0191 0.121,0.0191c0.1311,0 0.259,-0.0665 0.3303,-0.1818c0.2214,-0.3592 0.2198,-0.363 -11.0924,-11.5579l11.2609,-11.27142c0.1103,-0.11155 0.1425,-0.27583 0.0835,-0.41871zm-2.4226,-1.4815l-1.032,1.24617l-19.1645,0l-1.3139,-1.24617l21.5104,0zm-29.18652,-6.22631l7.87912,7.47248l-8.82761,0l-2.20882,-5.49586l3.15731,-1.97662zm-6.7,4.294l2.88686,-1.89486l0.76156,1.89486l-3.64842,0zm19.34842,22.78424c-0.01,-0.0107 -0.0238,-0.0153 -0.0345,-0.0237l2.7444,-2.7468l0,5.6143l-2.7099,-2.8438zm17.4943,3.2724c-1.4465,-0.0214 -5.0405,-0.0305 -14.0183,0.0191l0,-6.5808c0,-0.0703 -0.0245,-0.133 -0.0574,-0.1903l3.6576,-3.6613c3.607,3.5704 8.7134,8.6522 10.4181,10.4133zm-21.6323,-0.2705l-9.14326,-21.8436l28.87166,0c0.0276,0.00611 0.0552,0.01452 0.0828,0.01452c0.0222,0 0.0429,-0.0107 0.0651,-0.01452l1.946,0l-21.8223,21.8436z" clip-rule="evenodd" fill-rule="evenodd"/>
  <text font-style="normal" font-weight="normal" transform="matrix(1.032447697414355,0,0,1.4125255688346647,-4.403903212091052,-11.131968082173053) " xml:space="preserve" text-anchor="start" font-family="'Open Sans Light'" font-size="24" id="svg_8" y="29.4159" x="44.07086" stroke-width="0" fill="#ffffff">SISVENTAS</text>
 </g>
</svg>